<?xml version="1.0" encoding="utf-8"?>
<!-- Generator: Adobe Illustrator 23.0.6, SVG Export Plug-In . SVG Version: 6.00 Build 0)  -->
<svg version="1.1" id="Calque_1" xmlns="http://www.w3.org/2000/svg" xmlns:xlink="http://www.w3.org/1999/xlink" x="0px" y="0px"
	 viewBox="0 0 1107.9 380" style="enable-background:new 0 0 1107.9 380;" xml:space="preserve">
<style type="text/css">
	.st0{fill:#525668;}
	.st1{fill:url(#SVGID_1_);}
	.st2{fill:url(#_x3C_Tracé_x3E__5_);}
	.st3{opacity:0.7;fill:url(#_x3C_Tracé_x3E__6_);}
	.st4{opacity:0.8;fill:url(#_x3C_Tracé_x3E__8_);}
	.st5{opacity:0.3;fill:url(#_x3C_Tracé_x3E__9_);}
	.st6{opacity:0.7;}
	.st7{fill:url(#SVGID_2_);}
	.st8{fill:url(#SVGID_3_);}
	.st9{fill:url(#SVGID_4_);}
</style>
<g>
	<path class="st0" d="M581.8,160.9v25l56.7,0l-3.4,16.2h-53.2v35.8h-25.9v-93.3h91.3l-3.5,16.3H581.8z M895.9,237.9h-29.7l-8.9-18.9
		h-49.8l-8.6,18.9h-18.7l43.9-93.3c0,0,11.7,0,17.5,0c6.6,0,9.1,2.7,12.5,9.7C857.3,160.8,895.9,237.9,895.9,237.9z M849.6,202.8
		L832,165.5l-17,37.2H849.6z M543.1,237.9h-29.7l-8.9-18.9h-49.8l-8.6,18.9h-18.7l44-93.3c0,0,11.7,0,17.5,0c6.6,0,9.1,2.7,12.5,9.7
		C504.4,160.8,543.1,237.9,543.1,237.9z M496.8,202.8l-17.6-37.2l-17,37.2H496.8z M373,240.9c33.4,0,48.8-12.2,48.8-30
		c0-15.5-14-23.4-44.7-31.8c-18.3-5-29.7-6-29.7-12.2c0-5.9,10.7-9.1,27.1-8.3c20.6,1,33.7,9.7,33.7,9.7l8.1-12.9
		c0,0-18.5-13.7-47.9-13.7c-32.1,0-49,9.8-49,27.8c0,17.8,19.2,23.9,47.2,31.9c17.2,4.9,27.2,5.8,27.2,12.4
		c0,5.1-5.2,11.4-28.1,10.3c-22-1.1-41.1-13.8-41.1-13.8l-9.8,11.9C314.8,222.1,335.8,240.9,373,240.9z M995.4,144.6v55.7
		c0,0-54.7-43.6-59.2-47.2c-8.1-6.4-11.8-8.5-20.8-8.5c-3.8,0-6.7,0-6.7,0v93.3h19.1V183c0,0,54.2,43.3,58.7,46.8
		c8.1,6.4,12.2,8,21.2,8c3.8,0,6.7,0,6.7,0v-93.3H995.4z M770.3,237.9c0,0-6.7,0-17.5,0c-10.4,0-16.7-7.2-20.5-12.2
		c-4.2-5.5-14.7-19.4-14.7-19.4s-1.2,0-1.8,0c-7,0-26.3,0-26.3,0h-0.3v31.6h-25.9v-93.3h26.2c0,0,19.2,0,26.3,0
		c20.1,0,49,2.1,49,30.9v0c0,16.7-9.8,24.4-21.9,27.9L770.3,237.9z M736.7,175.5L736.7,175.5c0-9.8-6.2-14.6-19.9-14.6h-27.3
		l-0.3-0.2v29.6l0.3-0.2h27.3C730.5,190.1,736.7,185.3,736.7,175.5z"/>
	<g>
		<radialGradient id="SVGID_1_" cx="180.6491" cy="259.0511" r="97.6114" gradientUnits="userSpaceOnUse">
			<stop  offset="0" style="stop-color:#9DCEEA"/>
			<stop  offset="9.755313e-03" style="stop-color:#9BCCE9"/>
			<stop  offset="0.3395" style="stop-color:#679ACA"/>
			<stop  offset="0.6262" style="stop-color:#4176B4"/>
			<stop  offset="0.8559" style="stop-color:#2A5FA6"/>
			<stop  offset="1" style="stop-color:#2257A1"/>
		</radialGradient>
		<path class="st1" d="M268,231.5h-2.1c-19.2,26.3-50.2,43.4-85.2,43.4c-35,0-66.1-17.1-85.2-43.4h-2.1
			c15.5,32.6,48.8,55.2,87.3,55.2C219.2,286.6,252.4,264.1,268,231.5z"/>
		<linearGradient id="_x3C_Tracé_x3E__5_" gradientUnits="userSpaceOnUse" x1="128.798" y1="162.282" x2="261.0773" y2="237.305">
			<stop  offset="0" style="stop-color:#7FB8E7"/>
			<stop  offset="0.1248" style="stop-color:#70ACDD"/>
			<stop  offset="0.7207" style="stop-color:#2C76B3"/>
			<stop  offset="1" style="stop-color:#1261A3"/>
		</linearGradient>
		<path id="_x3C_Tracé_x3E__7_" class="st2" d="M249.8,241.9c4.7-5.2,8.9-12.4,9.8-17.6c4.5-23.8-17.6-35.9-43.7-45
			c-20.4-7.1-37.2-12-51.5-16.4c-22.7-7-26.6-13.7-26.4-20.9c0.2-8.4,9.1-19,19.2-25.3c0,0-19-0.1-38.3,14.3
			c-11.4,8.6-16.2,17.4-17.8,25.4c-8.1,39.8,70.5,55.6,100.7,65.4c16.5,5.4,18.7,12.6,18.6,18.3c-0.3,13.3-19.1,25.3-19.2,25.3
			C216.6,265,237.4,255.9,249.8,241.9"/>
		<linearGradient id="_x3C_Tracé_x3E__6_" gradientUnits="userSpaceOnUse" x1="243.078" y1="190.178" x2="165.0958" y2="145.6978">
			<stop  offset="0" style="stop-color:#9DCEEA"/>
			<stop  offset="1" style="stop-color:#2257A1"/>
		</linearGradient>
		<path id="_x3C_Tracé_x3E__4_" class="st3" d="M259.7,224.3c4.5-23.8-17.6-35.9-43.7-45c-20.4-7.1-37.2-12-51.5-16.4
			c-22.7-7-26.6-13.7-26.4-20.9c0.2-8.4,9.1-19,19.2-25.3c-14.7,9.1-19.6,17.8-20.9,24.3c-1.8,8.8,4.6,16.3,26.3,23.1
			c14.3,4.5,31.1,9.3,51.5,16.4c17.1,6,31.8,12.3,39.7,22.7C261.1,212.8,259.7,224.3,259.7,224.3z"/>
		
			<linearGradient id="_x3C_Tracé_x3E__8_" gradientUnits="userSpaceOnUse" x1="238.4938" y1="407.5432" x2="232.6258" y2="423.8898" gradientTransform="matrix(0.9807 0.1953 -0.1953 0.9807 77.9481 -265.2009)">
			<stop  offset="8.148871e-02" style="stop-color:#FFFFFF"/>
			<stop  offset="1" style="stop-color:#FFFFFF;stop-opacity:0"/>
		</linearGradient>
		<path id="_x3C_Tracé_x3E__3_" class="st4" d="M192.7,173.3c-10.8-3.4-13.9,3-1.2,7.2c6.2,2,14.4,4.8,21.1,7
			c22.4,7.3,42.8,16.8,39,39.7c-0.9,4.7-1.5,6.8-5.2,11.8c0.5-0.7,10.8-5.2,12.4-16.6c3.1-22.2-20-33.4-44.7-41.9
			C207.9,178.3,199.7,175.5,192.7,173.3z"/>
		
			<linearGradient id="_x3C_Tracé_x3E__9_" gradientUnits="userSpaceOnUse" x1="193.7337" y1="211.1864" x2="239.5313" y2="247.6285">
			<stop  offset="0" style="stop-color:#FFFFFF"/>
			<stop  offset="1" style="stop-color:#0E69B1"/>
		</linearGradient>
		<path id="_x3C_Tracé_x3E__2_" class="st5" d="M246.4,238.9c-10.1,13.9-32,25.1-45.1,26.3h0c2.3-1.3,20.9-12.1,23-23.5
			c2-10.7-3.6-17.8-20.7-22.7c-3.5-1-7.2-2.1-11.3-3.3l0,0l20.3-28.2c22.4,7.3,42.8,16.8,39,39.7C250.7,231.8,250.1,234,246.4,238.9
			"/>
		<g id="_x3C_Tracé_x3E__1_" class="st6">
			<g>
				<g>
					<linearGradient id="SVGID_2_" gradientUnits="userSpaceOnUse" x1="100.6645" y1="211.3579" x2="224.6499" y2="211.3579">
						<stop  offset="0" style="stop-color:#9DCEEA"/>
						<stop  offset="1" style="stop-color:#2257A1"/>
					</linearGradient>
					<path class="st7" d="M201.4,265.2C201.4,265.2,201.3,265.2,201.4,265.2C201.3,265.2,201.3,265.2,201.4,265.2z"/>
					<linearGradient id="SVGID_3_" gradientUnits="userSpaceOnUse" x1="100.6645" y1="211.3579" x2="224.6499" y2="211.3579">
						<stop  offset="0" style="stop-color:#9DCEEA"/>
						<stop  offset="1" style="stop-color:#2257A1"/>
					</linearGradient>
					<path class="st8" d="M203.6,219c-8.9-2.6-19.8-5.8-32.9-9.7c-10-3-22.8-7.5-34.7-12.8c-31.8-14.1-35.8-31.1-35-39.1
						c-6.3,38.9,71,54.5,100.9,64.2c16.5,5.4,18.7,12.6,18.6,18.3c-0.3,12.9-17.9,24.5-19.1,25.2c2.5-1.4,20.8-12.2,22.9-23.5
						C226.2,231,220.6,223.9,203.6,219z"/>
				</g>
			</g>
		</g>
		<linearGradient id="SVGID_4_" gradientUnits="userSpaceOnUse" x1="173.6021" y1="91.7669" x2="197.4335" y2="283.6268">
			<stop  offset="0" style="stop-color:#9DCEEA"/>
			<stop  offset="5.471861e-02" style="stop-color:#87B9DD"/>
			<stop  offset="0.1494" style="stop-color:#689BCB"/>
			<stop  offset="0.2531" style="stop-color:#4E82BB"/>
			<stop  offset="0.3675" style="stop-color:#3A6FB0"/>
			<stop  offset="0.4981" style="stop-color:#2C61A7"/>
			<stop  offset="0.6588" style="stop-color:#2459A2"/>
			<stop  offset="0.9388" style="stop-color:#2257A1"/>
		</linearGradient>
		<path class="st9" d="M268,148.5h-2.1c-19.2-26.3-50.2-43.4-85.2-43.4c-35,0-66.1,17.1-85.2,43.4h-2.1
			c15.5-32.6,48.8-55.2,87.3-55.2C219.2,93.3,252.4,115.9,268,148.5z"/>
	</g>
</g>
</svg>
